<?xml version="1.0" encoding="utf-8"?>
<!-- Generator: Adobe Illustrator 22.0.1, SVG Export Plug-In . SVG Version: 6.00 Build 0)  -->
<svg version="1.1" id="Layer_1" xmlns="http://www.w3.org/2000/svg" xmlns:xlink="http://www.w3.org/1999/xlink" x="0px" y="0px"
	 viewBox="0 0 234.6 88.4" style="enable-background:new 0 0 234.6 88.4;" xml:space="preserve">
<style type="text/css">
	.st0{enable-background:new    ;}
	.st1{fill:#FFFFFF;}
</style>
<g>
	<g class="st0">
		<path class="st1" d="M4,62.8V10.6h19.5c4.3,0,8.1,0.7,11.3,2.1c3.2,1.4,5.9,3.2,8.1,5.6c2.2,2.3,3.8,5.1,4.9,8.3s1.7,6.5,1.7,10.1
			c0,4-0.6,7.5-1.8,10.8c-1.2,3.2-3,5.9-5.2,8.2s-5,4-8.2,5.3c-3.2,1.2-6.8,1.9-10.7,1.9H4z M37.2,36.6c0-2.3-0.3-4.4-0.9-6.3
			c-0.6-1.9-1.5-3.5-2.7-4.9c-1.2-1.4-2.6-2.4-4.3-3.2c-1.7-0.7-3.6-1.1-5.8-1.1H16v31h7.4c2.2,0,4.2-0.4,5.9-1.2
			c1.7-0.8,3.1-1.9,4.3-3.3c1.1-1.4,2-3,2.6-4.9C36.9,40.9,37.2,38.9,37.2,36.6z"/>
		<path class="st1" d="M111.4,10.6v52.1h-12V41.4H78.6v21.4h-12V10.6h12v20.2h20.8V10.6H111.4z"/>
		<path class="st1" d="M162.6,25.9c-0.1-0.2-0.7-0.6-1.5-1.1c-0.9-0.5-2-1.1-3.3-1.7s-2.8-1.1-4.3-1.5c-1.6-0.4-3.1-0.7-4.7-0.7
			c-4.3,0-6.5,1.4-6.5,4.3c0,0.9,0.2,1.6,0.7,2.2c0.5,0.6,1.1,1.1,2.1,1.6c0.9,0.5,2,0.9,3.4,1.3c1.4,0.4,3,0.8,4.8,1.3
			c2.5,0.7,4.7,1.4,6.8,2.2c2,0.8,3.7,1.8,5.1,3s2.5,2.7,3.2,4.4c0.8,1.7,1.1,3.8,1.1,6.2c0,2.9-0.5,5.4-1.7,7.5
			c-1.1,2-2.6,3.7-4.4,4.9c-1.8,1.2-3.9,2.2-6.2,2.7c-2.3,0.6-4.8,0.8-7.3,0.8c-1.9,0-3.9-0.1-5.9-0.4c-2-0.3-4-0.7-5.9-1.3
			c-1.9-0.6-3.8-1.2-5.5-2c-1.8-0.8-3.4-1.7-5-2.7l5.3-10.5c0.2,0.2,0.8,0.7,1.9,1.4c1.1,0.7,2.4,1.4,4,2.1c1.6,0.7,3.4,1.3,5.3,1.8
			c2,0.5,3.9,0.8,5.9,0.8c4.3,0,6.4-1.3,6.4-3.9c0-1-0.3-1.8-1-2.4s-1.5-1.2-2.6-1.7c-1.1-0.5-2.5-1-4-1.4s-3.2-0.9-5-1.5
			c-2.4-0.7-4.5-1.5-6.2-2.4c-1.8-0.9-3.2-1.8-4.4-3c-1.2-1.1-2-2.4-2.6-3.9c-0.6-1.5-0.8-3.2-0.8-5.1c0-2.7,0.5-5.2,1.5-7.3
			c1-2.1,2.4-3.9,4.2-5.3c1.8-1.4,3.8-2.5,6.1-3.3c2.3-0.7,4.8-1.1,7.4-1.1c1.8,0,3.6,0.2,5.4,0.5c1.8,0.3,3.4,0.8,5.1,1.3
			c1.6,0.5,3.1,1.2,4.5,1.8c1.4,0.7,2.7,1.4,3.9,2.1L162.6,25.9z"/>
		<path class="st1" d="M186.5,62.8V10.6h12v41.5h25.2v10.6H186.5z"/>
	</g>
</g>
<g class="st0">
	<path class="st1" d="M4.5,84.1V76h3c0.7,0,1.3,0.1,1.8,0.3c0.5,0.2,0.9,0.5,1.3,0.9c0.3,0.4,0.6,0.8,0.8,1.3c0.2,0.5,0.3,1,0.3,1.6
		c0,0.6-0.1,1.2-0.3,1.7c-0.2,0.5-0.5,0.9-0.8,1.3c-0.4,0.4-0.8,0.6-1.3,0.8c-0.5,0.2-1.1,0.3-1.7,0.3H4.5z M9.7,80.1
		c0-0.4,0-0.7-0.1-1c-0.1-0.3-0.2-0.5-0.4-0.8c-0.2-0.2-0.4-0.4-0.7-0.5c-0.3-0.1-0.6-0.2-0.9-0.2H6.4v4.8h1.2
		c0.3,0,0.6-0.1,0.9-0.2c0.3-0.1,0.5-0.3,0.7-0.5c0.2-0.2,0.3-0.5,0.4-0.8C9.6,80.7,9.7,80.4,9.7,80.1z"/>
	<path class="st1" d="M13.7,77.4v-1.7h1.8v1.7H13.7z M13.7,84.1v-6h1.8v6H13.7z"/>
	<path class="st1" d="M20.4,84.2c-0.4,0-0.8-0.1-1.1-0.2c-0.3-0.2-0.6-0.4-0.8-0.7c-0.2-0.3-0.4-0.6-0.5-1c-0.1-0.4-0.2-0.8-0.2-1.2
		c0-0.4,0.1-0.9,0.2-1.2c0.1-0.4,0.3-0.7,0.6-1c0.2-0.3,0.5-0.5,0.9-0.7c0.3-0.2,0.7-0.2,1.1-0.2c0.5,0,0.9,0.1,1.2,0.3
		c0.3,0.2,0.6,0.5,0.8,0.8v-1h1.6v5.6c0,0.5-0.1,0.9-0.3,1.2c-0.2,0.4-0.4,0.7-0.7,0.9c-0.3,0.3-0.7,0.5-1.1,0.6
		c-0.4,0.1-0.9,0.2-1.4,0.2c-0.6,0-1.2-0.1-1.7-0.3c-0.5-0.2-0.9-0.5-1.2-0.9l1-1c0.2,0.3,0.5,0.5,0.8,0.6c0.3,0.1,0.7,0.2,1.1,0.2
		c0.2,0,0.4,0,0.6-0.1c0.2-0.1,0.4-0.2,0.5-0.3c0.2-0.1,0.3-0.3,0.4-0.5c0.1-0.2,0.1-0.4,0.1-0.7v-0.6c-0.2,0.3-0.4,0.6-0.8,0.8
		C21.1,84.1,20.8,84.2,20.4,84.2z M21,82.7c0.3,0,0.5-0.1,0.8-0.2c0.2-0.2,0.4-0.4,0.5-0.6v-1.3c-0.1-0.3-0.3-0.6-0.6-0.8
		c-0.3-0.2-0.5-0.3-0.8-0.3c-0.2,0-0.4,0-0.5,0.1c-0.2,0.1-0.3,0.2-0.4,0.4c-0.1,0.1-0.2,0.3-0.3,0.5c-0.1,0.2-0.1,0.4-0.1,0.6
		c0,0.2,0,0.4,0.1,0.6c0.1,0.2,0.2,0.3,0.3,0.5c0.1,0.1,0.3,0.2,0.5,0.3C20.6,82.7,20.8,82.7,21,82.7z"/>
	<path class="st1" d="M26.5,77.4v-1.7h1.8v1.7H26.5z M26.5,84.1v-6h1.8v6H26.5z"/>
	<path class="st1" d="M34.7,83.8c-0.3,0.1-0.5,0.2-0.9,0.3c-0.3,0.1-0.7,0.1-1,0.1c-0.2,0-0.4,0-0.6-0.1c-0.2-0.1-0.4-0.1-0.5-0.3
		c-0.2-0.1-0.3-0.3-0.4-0.5c-0.1-0.2-0.1-0.5-0.1-0.7v-3.1h-0.8v-1.4h0.8v-1.9H33v1.9h1.2v1.4H33V82c0,0.2,0,0.3,0.1,0.4
		c0.1,0.1,0.2,0.1,0.4,0.1c0.1,0,0.3,0,0.4-0.1c0.1,0,0.3-0.1,0.4-0.1L34.7,83.8z"/>
	<path class="st1" d="M38.3,84.3c-0.3,0-0.6,0-0.8-0.1c-0.3-0.1-0.5-0.2-0.7-0.4c-0.2-0.2-0.3-0.4-0.4-0.6c-0.1-0.2-0.2-0.5-0.2-0.8
		c0-0.3,0.1-0.6,0.2-0.8c0.1-0.2,0.3-0.5,0.5-0.6c0.2-0.2,0.5-0.3,0.8-0.4c0.3-0.1,0.7-0.1,1-0.1c0.3,0,0.5,0,0.7,0.1
		c0.2,0,0.4,0.1,0.6,0.2v-0.3c0-0.7-0.4-1-1.2-1c-0.3,0-0.6,0.1-0.9,0.2s-0.6,0.3-0.9,0.5l-0.5-1.1c0.4-0.3,0.8-0.5,1.2-0.6
		c0.4-0.1,0.9-0.2,1.4-0.2c0.9,0,1.6,0.2,2.1,0.6c0.5,0.4,0.7,1.1,0.7,1.9v1.5c0,0.2,0,0.3,0.1,0.4c0.1,0.1,0.2,0.1,0.3,0.1v1.5
		c-0.2,0-0.3,0.1-0.4,0.1c-0.1,0-0.2,0-0.4,0c-0.3,0-0.6-0.1-0.8-0.2c-0.2-0.1-0.3-0.3-0.3-0.6l0-0.3c-0.3,0.3-0.6,0.6-1,0.8
		C39.1,84.2,38.7,84.3,38.3,84.3z M38.9,82.9c0.2,0,0.4,0,0.6-0.1c0.2-0.1,0.3-0.2,0.5-0.3c0.2-0.1,0.3-0.3,0.3-0.4v-0.6
		c-0.2-0.1-0.3-0.1-0.5-0.1c-0.2,0-0.4-0.1-0.5-0.1c-0.3,0-0.6,0.1-0.8,0.2c-0.2,0.2-0.3,0.4-0.3,0.6c0,0.2,0.1,0.4,0.3,0.5
		C38.4,82.9,38.6,82.9,38.9,82.9z"/>
	<path class="st1" d="M44.5,75.8h1.8V82c0,0.5,0.2,0.7,0.6,0.7c0.1,0,0.2,0,0.3,0c0.1,0,0.2-0.1,0.3-0.1l0.2,1.4
		c-0.2,0.1-0.5,0.2-0.8,0.3c-0.3,0.1-0.6,0.1-0.8,0.1c-0.5,0-0.9-0.1-1.2-0.4c-0.3-0.3-0.4-0.7-0.4-1.2V75.8z"/>
	<path class="st1" d="M64.1,76v8.1h-1.9v-3.3H59v3.3h-1.9V76H59v3.2h3.2V76H64.1z"/>
	<path class="st1" d="M68.5,84.3c-0.6,0-1.1-0.2-1.4-0.6s-0.5-1-0.5-1.7v-3.9h1.8v3.4c0,0.4,0.1,0.6,0.2,0.8
		c0.1,0.2,0.4,0.3,0.6,0.3c0.2,0,0.5-0.1,0.7-0.2c0.2-0.1,0.4-0.4,0.6-0.7v-3.7h1.8v4c0,0.2,0,0.3,0.1,0.4c0.1,0.1,0.2,0.1,0.3,0.1
		v1.5c-0.2,0-0.3,0.1-0.4,0.1c-0.1,0-0.2,0-0.3,0c-0.7,0-1-0.3-1.1-0.8l0-0.4c-0.3,0.4-0.6,0.7-1,0.9C69.5,84.2,69,84.3,68.5,84.3z"
		/>
	<path class="st1" d="M84.6,84.1h-1.8v-3.4c0-0.4-0.1-0.7-0.2-0.9s-0.3-0.3-0.6-0.3c-0.1,0-0.2,0-0.4,0.1c-0.1,0.1-0.2,0.1-0.3,0.2
		C81.1,80,81,80.1,81,80.3c-0.1,0.1-0.2,0.3-0.2,0.4v3.4h-1.8v-3.4c0-0.4-0.1-0.7-0.2-0.9s-0.3-0.3-0.6-0.3c-0.2,0-0.5,0.1-0.7,0.3
		c-0.2,0.2-0.4,0.5-0.5,0.8v3.4h-1.8v-6h1.6v1c0.2-0.4,0.5-0.6,0.9-0.8c0.4-0.2,0.8-0.3,1.3-0.3c0.3,0,0.5,0,0.7,0.1
		c0.2,0.1,0.3,0.1,0.5,0.3c0.1,0.1,0.2,0.2,0.3,0.4c0.1,0.1,0.1,0.3,0.2,0.5c0.2-0.4,0.5-0.7,0.9-0.9c0.4-0.2,0.8-0.3,1.3-0.3
		c0.4,0,0.7,0.1,0.9,0.2c0.2,0.1,0.4,0.3,0.5,0.6c0.1,0.2,0.2,0.5,0.3,0.7c0,0.3,0.1,0.5,0.1,0.8V84.1z"/>
	<path class="st1" d="M88.7,84.3c-0.3,0-0.6,0-0.8-0.1c-0.3-0.1-0.5-0.2-0.7-0.4c-0.2-0.2-0.3-0.4-0.4-0.6c-0.1-0.2-0.2-0.5-0.2-0.8
		c0-0.3,0.1-0.6,0.2-0.8c0.1-0.2,0.3-0.5,0.5-0.6c0.2-0.2,0.5-0.3,0.8-0.4c0.3-0.1,0.7-0.1,1-0.1c0.3,0,0.5,0,0.7,0.1
		c0.2,0,0.4,0.1,0.6,0.2v-0.3c0-0.7-0.4-1-1.2-1c-0.3,0-0.6,0.1-0.9,0.2c-0.3,0.1-0.6,0.3-0.9,0.5l-0.5-1.1c0.4-0.3,0.8-0.5,1.2-0.6
		c0.4-0.1,0.9-0.2,1.4-0.2c0.9,0,1.6,0.2,2.1,0.6s0.7,1.1,0.7,1.9v1.5c0,0.2,0,0.3,0.1,0.4c0.1,0.1,0.2,0.1,0.3,0.1v1.5
		c-0.2,0-0.3,0.1-0.4,0.1c-0.1,0-0.2,0-0.4,0c-0.3,0-0.6-0.1-0.8-0.2c-0.2-0.1-0.3-0.3-0.3-0.6l0-0.3c-0.3,0.3-0.6,0.6-1,0.8
		C89.5,84.2,89.1,84.3,88.7,84.3z M89.2,82.9c0.2,0,0.4,0,0.6-0.1c0.2-0.1,0.3-0.2,0.5-0.3c0.2-0.1,0.3-0.3,0.3-0.4v-0.6
		c-0.2-0.1-0.3-0.1-0.5-0.1c-0.2,0-0.4-0.1-0.5-0.1c-0.3,0-0.6,0.1-0.8,0.2c-0.2,0.2-0.3,0.4-0.3,0.6c0,0.2,0.1,0.4,0.3,0.5
		S89,82.9,89.2,82.9z"/>
	<path class="st1" d="M100.7,84.1h-1.8v-3.4c0-0.4-0.1-0.7-0.2-0.9c-0.1-0.2-0.3-0.3-0.6-0.3c-0.1,0-0.3,0-0.4,0.1
		c-0.1,0.1-0.3,0.1-0.4,0.2c-0.1,0.1-0.2,0.2-0.3,0.3c-0.1,0.1-0.2,0.3-0.2,0.4v3.4h-1.8v-6h1.6v1c0.2-0.4,0.5-0.6,0.9-0.8
		c0.4-0.2,0.9-0.3,1.4-0.3c0.4,0,0.7,0.1,0.9,0.2c0.2,0.1,0.4,0.3,0.5,0.6c0.1,0.2,0.2,0.5,0.3,0.7c0,0.3,0.1,0.5,0.1,0.8V84.1z"/>
	<path class="st1" d="M103.1,77.4v-1.7h1.8v1.7H103.1z M103.1,84.1v-6h1.8v6H103.1z"/>
	<path class="st1" d="M111.3,83.8c-0.3,0.1-0.5,0.2-0.9,0.3c-0.3,0.1-0.7,0.1-1,0.1c-0.2,0-0.4,0-0.6-0.1c-0.2-0.1-0.4-0.1-0.5-0.3
		c-0.2-0.1-0.3-0.3-0.4-0.5c-0.1-0.2-0.1-0.5-0.1-0.7v-3.1H107v-1.4h0.8v-1.9h1.8v1.9h1.2v1.4h-1.2V82c0,0.2,0,0.3,0.1,0.4
		c0.1,0.1,0.2,0.1,0.4,0.1c0.1,0,0.3,0,0.4-0.1c0.1,0,0.3-0.1,0.4-0.1L111.3,83.8z"/>
	<path class="st1" d="M114.9,84.3c-0.3,0-0.6,0-0.8-0.1c-0.3-0.1-0.5-0.2-0.7-0.4c-0.2-0.2-0.3-0.4-0.4-0.6
		c-0.1-0.2-0.2-0.5-0.2-0.8c0-0.3,0.1-0.6,0.2-0.8c0.1-0.2,0.3-0.5,0.5-0.6c0.2-0.2,0.5-0.3,0.8-0.4c0.3-0.1,0.7-0.1,1-0.1
		c0.3,0,0.5,0,0.7,0.1c0.2,0,0.4,0.1,0.6,0.2v-0.3c0-0.7-0.4-1-1.2-1c-0.3,0-0.6,0.1-0.9,0.2c-0.3,0.1-0.6,0.3-0.9,0.5l-0.5-1.1
		c0.4-0.3,0.8-0.5,1.2-0.6c0.4-0.1,0.9-0.2,1.4-0.2c0.9,0,1.6,0.2,2.1,0.6s0.7,1.1,0.7,1.9v1.5c0,0.2,0,0.3,0.1,0.4
		c0.1,0.1,0.2,0.1,0.3,0.1v1.5c-0.2,0-0.3,0.1-0.4,0.1c-0.1,0-0.2,0-0.4,0c-0.3,0-0.6-0.1-0.8-0.2c-0.2-0.1-0.3-0.3-0.3-0.6l0-0.3
		c-0.3,0.3-0.6,0.6-1,0.8C115.7,84.2,115.3,84.3,114.9,84.3z M115.4,82.9c0.2,0,0.4,0,0.6-0.1c0.2-0.1,0.3-0.2,0.5-0.3
		c0.2-0.1,0.3-0.3,0.3-0.4v-0.6c-0.2-0.1-0.3-0.1-0.5-0.1c-0.2,0-0.4-0.1-0.5-0.1c-0.3,0-0.6,0.1-0.8,0.2c-0.2,0.2-0.3,0.4-0.3,0.6
		c0,0.2,0.1,0.4,0.3,0.5C114.9,82.9,115.2,82.9,115.4,82.9z"/>
	<path class="st1" d="M124.9,79.7c-0.4,0-0.8,0.1-1.2,0.2c-0.4,0.1-0.6,0.3-0.8,0.6v3.6h-1.8v-6h1.7v1.2c0.2-0.4,0.5-0.7,0.8-1
		c0.3-0.2,0.7-0.3,1-0.4c0.1,0,0.1,0,0.2,0s0.1,0,0.1,0V79.7z"/>
	<path class="st1" d="M126.9,77.4v-1.7h1.8v1.7H126.9z M126.9,84.1v-6h1.8v6H126.9z"/>
	<path class="st1" d="M132.8,84.3c-0.3,0-0.6,0-0.8-0.1c-0.3-0.1-0.5-0.2-0.7-0.4c-0.2-0.2-0.3-0.4-0.4-0.6
		c-0.1-0.2-0.2-0.5-0.2-0.8c0-0.3,0.1-0.6,0.2-0.8c0.1-0.2,0.3-0.5,0.5-0.6c0.2-0.2,0.5-0.3,0.8-0.4c0.3-0.1,0.7-0.1,1-0.1
		c0.3,0,0.5,0,0.7,0.1c0.2,0,0.4,0.1,0.6,0.2v-0.3c0-0.7-0.4-1-1.2-1c-0.3,0-0.6,0.1-0.9,0.2c-0.3,0.1-0.6,0.3-0.9,0.5l-0.5-1.1
		c0.4-0.3,0.8-0.5,1.2-0.6c0.4-0.1,0.9-0.2,1.4-0.2c0.9,0,1.6,0.2,2.1,0.6s0.7,1.1,0.7,1.9v1.5c0,0.2,0,0.3,0.1,0.4
		c0.1,0.1,0.2,0.1,0.3,0.1v1.5c-0.2,0-0.3,0.1-0.4,0.1c-0.1,0-0.2,0-0.4,0c-0.3,0-0.6-0.1-0.8-0.2c-0.2-0.1-0.3-0.3-0.3-0.6l0-0.3
		c-0.3,0.3-0.6,0.6-1,0.8C133.7,84.2,133.3,84.3,132.8,84.3z M133.4,82.9c0.2,0,0.4,0,0.6-0.1c0.2-0.1,0.3-0.2,0.5-0.3
		c0.2-0.1,0.3-0.3,0.3-0.4v-0.6c-0.2-0.1-0.3-0.1-0.5-0.1c-0.2,0-0.4-0.1-0.5-0.1c-0.3,0-0.6,0.1-0.8,0.2c-0.2,0.2-0.3,0.4-0.3,0.6
		c0,0.2,0.1,0.4,0.3,0.5S133.1,82.9,133.4,82.9z"/>
	<path class="st1" d="M144.8,84.1H143v-3.4c0-0.4-0.1-0.7-0.2-0.9c-0.1-0.2-0.3-0.3-0.6-0.3c-0.1,0-0.3,0-0.4,0.1
		c-0.1,0.1-0.3,0.1-0.4,0.2c-0.1,0.1-0.2,0.2-0.3,0.3c-0.1,0.1-0.2,0.3-0.2,0.4v3.4H139v-6h1.7v1c0.2-0.4,0.5-0.6,0.9-0.8
		c0.4-0.2,0.9-0.3,1.4-0.3c0.4,0,0.7,0.1,0.9,0.2c0.2,0.1,0.4,0.3,0.5,0.6c0.1,0.2,0.2,0.5,0.3,0.7c0,0.3,0.1,0.5,0.1,0.8V84.1z"/>
	<path class="st1" d="M149.6,84.3c-0.5,0-1-0.1-1.5-0.2c-0.5-0.2-0.9-0.4-1.3-0.7l0.7-1.1c0.4,0.3,0.7,0.4,1.1,0.6
		c0.3,0.1,0.7,0.2,1,0.2c0.2,0,0.4,0,0.5-0.1c0.1-0.1,0.2-0.2,0.2-0.4c0-0.2-0.1-0.3-0.2-0.4c-0.2-0.1-0.5-0.2-0.9-0.3
		c-0.4-0.1-0.7-0.2-1-0.3c-0.3-0.1-0.5-0.2-0.7-0.4c-0.2-0.1-0.3-0.3-0.4-0.4c-0.1-0.2-0.1-0.4-0.1-0.6c0-0.3,0.1-0.6,0.2-0.8
		s0.3-0.5,0.5-0.6c0.2-0.2,0.5-0.3,0.8-0.4c0.3-0.1,0.6-0.1,1-0.1c0.5,0,0.9,0.1,1.3,0.2c0.4,0.1,0.8,0.3,1.1,0.7l-0.7,1.1
		c-0.3-0.2-0.7-0.4-0.9-0.5c-0.3-0.1-0.5-0.2-0.8-0.2c-0.2,0-0.4,0-0.5,0.1c-0.1,0.1-0.2,0.2-0.2,0.4c0,0.2,0.1,0.3,0.2,0.4
		c0.1,0.1,0.4,0.2,0.8,0.3c0.4,0.1,0.8,0.2,1.1,0.3c0.3,0.1,0.5,0.2,0.7,0.4c0.2,0.1,0.3,0.3,0.4,0.5c0.1,0.2,0.1,0.4,0.1,0.7
		c0,0.6-0.2,1.1-0.7,1.4C151,84.1,150.4,84.3,149.6,84.3z"/>
	<path class="st1" d="M166.9,78.4c0,0-0.1-0.1-0.2-0.2c-0.1-0.1-0.3-0.2-0.5-0.3c-0.2-0.1-0.4-0.2-0.7-0.2c-0.2-0.1-0.5-0.1-0.7-0.1
		c-0.7,0-1,0.2-1,0.7c0,0.1,0,0.3,0.1,0.3c0.1,0.1,0.2,0.2,0.3,0.2c0.1,0.1,0.3,0.1,0.5,0.2c0.2,0.1,0.5,0.1,0.7,0.2
		c0.4,0.1,0.7,0.2,1.1,0.3c0.3,0.1,0.6,0.3,0.8,0.5c0.2,0.2,0.4,0.4,0.5,0.7c0.1,0.3,0.2,0.6,0.2,1c0,0.5-0.1,0.8-0.3,1.2
		c-0.2,0.3-0.4,0.6-0.7,0.8c-0.3,0.2-0.6,0.3-1,0.4c-0.4,0.1-0.7,0.1-1.1,0.1c-0.3,0-0.6,0-0.9-0.1c-0.3,0-0.6-0.1-0.9-0.2
		c-0.3-0.1-0.6-0.2-0.9-0.3c-0.3-0.1-0.5-0.3-0.8-0.4l0.8-1.6c0,0,0.1,0.1,0.3,0.2c0.2,0.1,0.4,0.2,0.6,0.3c0.2,0.1,0.5,0.2,0.8,0.3
		c0.3,0.1,0.6,0.1,0.9,0.1c0.7,0,1-0.2,1-0.6c0-0.2-0.1-0.3-0.1-0.4s-0.2-0.2-0.4-0.3c-0.2-0.1-0.4-0.2-0.6-0.2
		c-0.2-0.1-0.5-0.1-0.8-0.2c-0.4-0.1-0.7-0.2-1-0.4c-0.3-0.1-0.5-0.3-0.7-0.5c-0.2-0.2-0.3-0.4-0.4-0.6c-0.1-0.2-0.1-0.5-0.1-0.8
		c0-0.4,0.1-0.8,0.2-1.1c0.2-0.3,0.4-0.6,0.7-0.8c0.3-0.2,0.6-0.4,1-0.5c0.4-0.1,0.7-0.2,1.2-0.2c0.3,0,0.6,0,0.8,0.1
		c0.3,0.1,0.5,0.1,0.8,0.2s0.5,0.2,0.7,0.3c0.2,0.1,0.4,0.2,0.6,0.3L166.9,78.4z"/>
	<path class="st1" d="M173.9,79.7c-0.4,0-0.8,0.1-1.2,0.2c-0.4,0.1-0.6,0.3-0.8,0.6v3.6h-1.8v-6h1.7v1.2c0.2-0.4,0.5-0.7,0.8-1
		c0.3-0.2,0.7-0.3,1-0.4c0.1,0,0.1,0,0.2,0c0,0,0.1,0,0.1,0V79.7z"/>
	<path class="st1" d="M175.9,77.4v-1.7h1.8v1.7H175.9z M175.9,84.1v-6h1.8v6H175.9z"/>
	<path class="st1" d="M188.1,84.1V76h1.9v6.5h3.9v1.7H188.1z"/>
	<path class="st1" d="M197.5,84.3c-0.3,0-0.6,0-0.8-0.1c-0.3-0.1-0.5-0.2-0.7-0.4c-0.2-0.2-0.3-0.4-0.4-0.6
		c-0.1-0.2-0.2-0.5-0.2-0.8c0-0.3,0.1-0.6,0.2-0.8s0.3-0.5,0.5-0.6c0.2-0.2,0.5-0.3,0.8-0.4c0.3-0.1,0.7-0.1,1-0.1
		c0.3,0,0.5,0,0.7,0.1c0.2,0,0.4,0.1,0.6,0.2v-0.3c0-0.7-0.4-1-1.2-1c-0.3,0-0.6,0.1-0.9,0.2c-0.3,0.1-0.6,0.3-0.9,0.5l-0.5-1.1
		c0.4-0.3,0.8-0.5,1.2-0.6c0.4-0.1,0.9-0.2,1.4-0.2c0.9,0,1.6,0.2,2.1,0.6c0.5,0.4,0.7,1.1,0.7,1.9v1.5c0,0.2,0,0.3,0.1,0.4
		c0.1,0.1,0.2,0.1,0.3,0.1v1.5c-0.2,0-0.3,0.1-0.4,0.1c-0.1,0-0.2,0-0.4,0c-0.3,0-0.6-0.1-0.8-0.2c-0.2-0.1-0.3-0.3-0.3-0.6l0-0.3
		c-0.3,0.3-0.6,0.6-1,0.8C198.3,84.2,197.9,84.3,197.5,84.3z M198.1,82.9c0.2,0,0.4,0,0.6-0.1c0.2-0.1,0.3-0.2,0.5-0.3
		c0.2-0.1,0.3-0.3,0.3-0.4v-0.6c-0.2-0.1-0.3-0.1-0.5-0.1c-0.2,0-0.4-0.1-0.5-0.1c-0.3,0-0.6,0.1-0.8,0.2c-0.2,0.2-0.3,0.4-0.3,0.6
		c0,0.2,0.1,0.4,0.3,0.5C197.6,82.9,197.8,82.9,198.1,82.9z"/>
	<path class="st1" d="M209.5,84.1h-1.8v-3.4c0-0.4-0.1-0.7-0.2-0.9c-0.1-0.2-0.3-0.3-0.6-0.3c-0.1,0-0.3,0-0.4,0.1
		c-0.1,0.1-0.3,0.1-0.4,0.2c-0.1,0.1-0.2,0.2-0.3,0.3c-0.1,0.1-0.2,0.3-0.2,0.4v3.4h-1.8v-6h1.7v1c0.2-0.4,0.5-0.6,0.9-0.8
		c0.4-0.2,0.9-0.3,1.4-0.3c0.4,0,0.7,0.1,0.9,0.2c0.2,0.1,0.4,0.3,0.5,0.6c0.1,0.2,0.2,0.5,0.3,0.7c0,0.3,0.1,0.5,0.1,0.8V84.1z"/>
	<path class="st1" d="M216,84.1l-1.6-2.4l-0.6,0.7v1.8h-1.8v-8.4h1.8v4.8l2-2.5h1.9l-2.2,2.6l2.3,3.4H216z"/>
	<path class="st1" d="M221.3,84.3c-0.3,0-0.6,0-0.8-0.1c-0.3-0.1-0.5-0.2-0.7-0.4c-0.2-0.2-0.3-0.4-0.4-0.6
		c-0.1-0.2-0.2-0.5-0.2-0.8c0-0.3,0.1-0.6,0.2-0.8c0.1-0.2,0.3-0.5,0.5-0.6c0.2-0.2,0.5-0.3,0.8-0.4c0.3-0.1,0.7-0.1,1-0.1
		c0.3,0,0.5,0,0.7,0.1c0.2,0,0.4,0.1,0.6,0.2v-0.3c0-0.7-0.4-1-1.2-1c-0.3,0-0.6,0.1-0.9,0.2c-0.3,0.1-0.6,0.3-0.9,0.5l-0.5-1.1
		c0.4-0.3,0.8-0.5,1.2-0.6c0.4-0.1,0.9-0.2,1.4-0.2c0.9,0,1.6,0.2,2.1,0.6s0.7,1.1,0.7,1.9v1.5c0,0.2,0,0.3,0.1,0.4
		c0.1,0.1,0.2,0.1,0.3,0.1v1.5c-0.2,0-0.3,0.1-0.4,0.1c-0.1,0-0.2,0-0.4,0c-0.3,0-0.6-0.1-0.8-0.2c-0.2-0.1-0.3-0.3-0.3-0.6l0-0.3
		c-0.3,0.3-0.6,0.6-1,0.8C222.1,84.2,221.7,84.3,221.3,84.3z M221.8,82.9c0.2,0,0.4,0,0.6-0.1c0.2-0.1,0.3-0.2,0.5-0.3
		c0.2-0.1,0.3-0.3,0.3-0.4v-0.6c-0.2-0.1-0.3-0.1-0.5-0.1c-0.2,0-0.4-0.1-0.5-0.1c-0.3,0-0.6,0.1-0.8,0.2c-0.2,0.2-0.3,0.4-0.3,0.6
		c0,0.2,0.1,0.4,0.3,0.5C221.3,82.9,221.5,82.9,221.8,82.9z"/>
</g>
</svg>
